<?xml version="1.0" encoding="UTF-8"?>
<!DOCTYPE svg PUBLIC "-//W3C//DTD SVG 1.1//EN" "http://www.w3.org/Graphics/SVG/1.1/DTD/svg11.dtd">
<!-- Creator: CorelDRAW -->
<svg xmlns="http://www.w3.org/2000/svg" xml:space="preserve" width="2048px" height="2048px" style="shape-rendering:geometricPrecision; text-rendering:geometricPrecision; image-rendering:optimizeQuality; fill-rule:evenodd; clip-rule:evenodd"
viewBox="0 0 2048 2048"
 xmlns:xlink="http://www.w3.org/1999/xlink">
 <defs>
  <style type="text/css">
   <![CDATA[
    .fil1 {fill:none}
    .fil0 {fill:#424242;fill-rule:nonzero}
   ]]>
  </style>
 </defs>
 <g id="Layer_x0020_1">
  <metadata id="CorelCorpID_0Corel-Layer"/>
  <path class="fil0" d="M1278.41 1490.73c88.6406,-27.9343 297.26,-93.4359 344.657,-103.832 7.26969,-1.59803 14.9386,-2.84292 22.9394,-3.72048 8.05867,-0.883465 15.7394,-1.3311 22.9725,-1.3311 28.102,0 54.2197,5.90079 74.5938,15.8634 24.8043,12.1287 41.9918,30.7264 46.9831,53.5571 3.13229,14.3102 2.75788,36.2292 -16.9453,59.2052 -10.3819,12.1099 -26.8394,24.8209 -52.5768,36.6331l-0.874016 0.375591 -448.523 188.896 -1.37599 0.624804c-217.054,80.3138 -236.447,74.0989 -392.27,24.1571 -26.8925,-8.61851 -58.193,-18.6508 -97.0241,-30.15 -26.0847,-7.72678 -51.1512,-15.4217 -74.1851,-22.4906 -149.545,-45.8989 -208.422,-63.9686 -393.599,-29.2866l-19.3169 3.61181 -37.8756 7.08071 0 -38.4555 0 -209.74 274.204 91.3997c66.7619,39.5315 376.375,90.4087 424.549,98.4367 78.9721,13.1622 227.995,33.091 296.131,-23.1366 36.5587,-30.1701 42.5764,-75.3969 27.5374,-117.698z"/>
  <path class="fil0" d="M255.988 1408l0 -10.7067 0 -4.23071 11.2063 2.05512 14.7945 -2.87244 13.2071 -2.56418c138.171,-26.7874 237.353,-44.4036 338.052,-43.2248 101.381,1.18701 201.621,21.3792 340.2,70.3028 29.4484,10.376 66.5835,18.7453 104.329,27.2504 60.228,13.5709 121.923,27.4736 164.688,51.6414 1.59095,0.89882 3.14173,1.81063 4.65473,2.7378 14.8181,38.1957 36.5776,155.563 -287.119,101.615 -113.196,-18.8658 -195.782,-34.9477 -256.001,-48.2528l-26.5618 14.1248 27.4831 18.9354 -0.921261 34.1551 -448.013 -82.1528 0 -128.813z"/>
  <path class="fil0" d="M575.979 551.471l929.878 0c24.0189,0 46.3241,7.72087 62.9056,20.1579 19.1788,14.3847 31.0855,34.989 31.0855,58.3359l0 105.386c0,23.3469 -11.9067,43.9512 -31.0855,58.3359 -16.5839,12.4358 -38.8878,20.1579 -62.9056,20.1579l-432.939 0 0 -230.373 -64.0016 0 0 230.373 -432.937 0c-24.0189,0 -46.3241,-7.72087 -62.9067,-20.1579 -19.1788,-14.3847 -31.0843,-34.989 -31.0843,-58.3359l0 -105.386c0,-23.3492 11.9043,-43.9536 31.0843,-58.3359 16.5827,-12.437 38.8878,-20.1579 62.9067,-20.1579z"/>
  <path class="fil0" d="M1072.92 845.845l0 463.936 387.731 0c17.6728,0 32.0008,-14.328 32.0008,-32.0008l0 -431.935 -419.732 0zm-483.731 0l0 431.935c0,17.6728 14.328,32.0008 32.0008,32.0008l387.729 0 0 -463.936 -419.73 0z"/>
  <path class="fil0" d="M909.63 612.113c-21.2173,-11.7402 -41.2181,-29.1721 -58.5827,-50.5512 -16.8272,-20.7177 -31.4799,-45.4028 -42.5859,-72.3662 -19.6642,-47.7414 -25.7835,-96.2292 -19.7811,-136.023 6.86457,-45.5091 29.3788,-81.1831 65.9103,-96.2304 36.4453,-15.0118 77.5028,-5.53111 114.416,21.9331 32.3894,24.0981 62.243,62.8441 81.88,110.519 14.7295,35.7614 22.0252,72.6449 21.9036,105.976 -0.121654,33.7583 -7.84725,64.5213 -23.1543,88.102l-9.06497 0 -45.6721 -32.8736c9.33898,-13.011 14.0587,-32.4851 14.1402,-55.2284 0.0921261,-25.3028 -5.62087,-53.7284 -17.1532,-81.7253 -15.1335,-36.7406 -37.2922,-65.9693 -60.88,-83.5194 -19.0642,-14.1839 -37.9618,-20.0327 -52.1646,-14.1827 -14.1165,5.81457 -23.3681,23.2488 -26.9103,46.7304 -4.40433,29.1957 0.425197,65.5961 15.5315,102.272 8.70946,21.1441 20.0906,40.3689 33.0851,56.367 12.4559,15.3354 26.0729,27.4358 39.8339,35.0504l-30.7512 55.7504z"/>
  <path class="fil0" d="M1147.58 553.738c14.2075,-4.31693 28.0772,-11.0492 40.5839,-19.5047 12.1536,-8.21694 22.5555,-17.765 30.2103,-27.9709 6.50788,-8.67757 10.5413,-16.9914 12.2469,-24.5339 1.24725,-5.5193 1.16457,-10.4043 -0.180709,-14.3917 -1.13504,-3.36378 -3.39685,-6.40276 -6.72284,-8.89725 -3.80197,-2.85118 -9.00591,-5.11772 -15.5976,-6.60709 -18.8799,-4.26969 -42.0662,-0.787796 -64.2898,8.29134 -22.8945,9.35316 -43.9996,24.3945 -57.88,42.9012 -8.83347,11.7768 -13.2142,22.9748 -13.1528,32.2866 0.0389764,6.0567 2.58898,11.4437 7.63819,15.3059l-25.0866 32.8547 -31.1811 0c-9.96024,-13.8378 -15.0047,-30.1878 -15.1217,-47.9103 -0.152362,-22.8874 8.4756,-47.5524 25.904,-70.7882 20.8866,-27.8469 51.7973,-50.1355 84.88,-63.6508 33.7536,-13.7906 70.519,-18.7276 102.291,-11.5417 15.5752,3.52087 28.9252,9.66497 39.8481,17.8583 13.9441,10.4575 23.6953,24.0095 28.9725,39.6461 5.06457,15.0118 5.79685,31.5461 1.9311,48.6437 -3.62953,16.0477 -11.3858,32.6362 -23.498,48.7843 -12.1583,16.2095 -27.7937,30.776 -45.4607,42.7205 -17.3138,11.7059 -37.0642,21.1925 -57.8327,27.5032l-18.5008 -60.9993z"/>
 </g>
 <rect class="fil1" width="2048" height="2048"/>
</svg>
